HIERARCHY
ROOT hips
{
  OFFSET 0 10.6860622 2.3727825e-15
  CHANNELS 6 Xposition Yposition Zposition Yrotation Xrotation Zrotation
  JOINT leftUpperLeg
  {
    OFFSET 0.6642549969 -0.9402397400000004 0
    CHANNELS 3 Yrotation Xrotation Zrotation
    JOINT leftLowerLeg
    {
      OFFSET 0 -3.997221335632195 0
      CHANNELS 3 Yrotation Xrotation Zrotation
      JOINT leftFoot
      {
        OFFSET -0.13777839790000004 -4.6145792000000005 -0.22186036399999998
        CHANNELS 3 Yrotation Xrotation Zrotation
        JOINT leftToes
        {
          OFFSET -0.03777410834999995 -0.9130806927000008 0.85230013
          CHANNELS 3 Yrotation Xrotation Zrotation
          End Site
          {
            OFFSET -0.03777410834999995 -0.9130806927000008 0.85230013
          }
        }
      }
    }
  }
  JOINT rightUpperLeg
  {
    OFFSET -0.6642778626 -0.9402397400000004 0
    CHANNELS 3 Yrotation Xrotation Zrotation
    JOINT rightLowerLeg
    {
      OFFSET 0 -3.997221452859387 0
      CHANNELS 3 Yrotation Xrotation Zrotation
      JOINT rightFoot
      {
        OFFSET 0.1377926176 -4.6145792000000005 -0.22185782299999995
        CHANNELS 3 Yrotation Xrotation Zrotation
        JOINT rightToes
        {
          OFFSET 0.037780746850000047 -0.9130806927000008 0.85230167
          CHANNELS 3 Yrotation Xrotation Zrotation
          End Site
          {
            OFFSET 0.037780746850000047 -0.9130806927000008 0.85230167
          }
        }
      }
    }
  }
  JOINT spine
  {
    OFFSET 0 0.13988381660000015 0
    CHANNELS 3 Yrotation Xrotation Zrotation
    JOINT chest
    {
      OFFSET 0 0.6191039003973773 0
      CHANNELS 3 Yrotation Xrotation Zrotation
      JOINT upperChest
      {
        OFFSET 0 0.9855186130586943 0
        CHANNELS 3 Yrotation Xrotation Zrotation
        JOINT leftShoulder
        {
          OFFSET 0.1807663869 1.5087829790000005 0
          CHANNELS 3 Yrotation Xrotation Zrotation
          JOINT leftUpperArm
          {
            OFFSET 0.5985063006419806 0 0
            CHANNELS 3 Yrotation Xrotation Zrotation
            JOINT leftLowerArm
            {
              OFFSET 2.2993332369501065 0 0
              CHANNELS 3 Yrotation Xrotation Zrotation
              JOINT leftHand
              {
                OFFSET 2.395047042602395 0 0
                CHANNELS 3 Yrotation Xrotation Zrotation
                JOINT leftIndexProximal
                {
                  OFFSET 0.5766295810000004 0.04556643899499946 0.17265095988184
                  CHANNELS 3 Yrotation Xrotation Zrotation
                  JOINT leftIndexIntermediate
                  {
                    OFFSET 0.2957229000000008 -0.019352197700001517 -0.007932640616999987
                    CHANNELS 3 Yrotation Xrotation Zrotation
                    JOINT leftIndexDistal
                    {
                      OFFSET 0.19008243099999922 -0.012484908149998475 -0.002786250786000012
                      CHANNELS 3 Yrotation Xrotation Zrotation
                      End Site
                      {
                        OFFSET 0.19008243099999922 -0.012484908149998475 -0.002786250786000012
                      }
                    }
                  }
                }
                JOINT leftMiddleProximal
                {
                  OFFSET 0.5834975091000001 0.0524350405149987 0.02204081888183999
                  CHANNELS 3 Yrotation Xrotation Zrotation
                  JOINT leftMiddleIntermediate
                  {
                    OFFSET 0.33880573540000003 -0.019871473270000717 -0.00000971183179999946
                    CHANNELS 3 Yrotation Xrotation Zrotation
                    JOINT leftMiddleDistal
                    {
                      OFFSET 0.20676022730000088 -0.012221336379999448 0.0001471936708000235
                      CHANNELS 3 Yrotation Xrotation Zrotation
                      End Site
                      {
                        OFFSET 0.20676022730000088 -0.012221336379999448 0.0001471936708000235
                      }
                    }
                  }
                }
                JOINT leftLittleProximal
                {
                  OFFSET 0.5344154683999995 -0.012880921405001189 -0.24414037221816004
                  CHANNELS 3 Yrotation Xrotation Zrotation
                  JOINT leftLittleIntermediate
                  {
                    OFFSET 0.21758961730000093 -0.011650919939999227 0.011893592810000034
                    CHANNELS 3 Yrotation Xrotation Zrotation
                    JOINT leftLittleDistal
                    {
                      OFFSET 0.1475273964999999 -0.008152365682999818 0.006001092492999946
                      CHANNELS 3 Yrotation Xrotation Zrotation
                      End Site
                      {
                        OFFSET 0.1475273964999999 -0.008152365682999818 0.006001092492999946
                      }
                    }
                  }
                }
                JOINT leftRingProximal
                {
                  OFFSET 0.5799399463000003 0.026911854694997794 -0.12150566991816003
                  CHANNELS 3 Yrotation Xrotation Zrotation
                  JOINT leftRingIntermediate
                  {
                    OFFSET 0.26167887460000006 -0.013480186499999602 0.010996293000000053
                    CHANNELS 3 Yrotation Xrotation Zrotation
                    JOINT leftRingDistal
                    {
                      OFFSET 0.17667108799999987 -0.008990287899999228 0.0055541023999999065
                      CHANNELS 3 Yrotation Xrotation Zrotation
                      End Site
                      {
                        OFFSET 0.17667108799999987 -0.008990287899999228 0.0055541023999999065
                      }
                    }
                  }
                }
                JOINT leftThumbProximal
                {
                  OFFSET 0.11018806699999972 -0.09448718900500053 0.17047963138184
                  CHANNELS 3 Yrotation Xrotation Zrotation
                  JOINT leftThumbIntermediate
                  {
                    OFFSET 0.31062601459999983 -0.08126270900000132 0.15443142000000007
                    CHANNELS 3 Yrotation Xrotation Zrotation
                    JOINT leftThumbDistal
                    {
                      OFFSET 0.21627175790000086 -0.08833193599999878 0.018771167799999988
                      CHANNELS 3 Yrotation Xrotation Zrotation
                      End Site
                      {
                        OFFSET 0.21627175790000086 -0.08833193599999878 0.018771167799999988
                      }
                    }
                  }
                }
              }
            }
          }
        }
        JOINT neck
        {
          OFFSET 0 1.5463305265074576 0
          CHANNELS 3 Yrotation Xrotation Zrotation
          JOINT head
          {
            OFFSET 0 0.8456443600000344 0
            CHANNELS 3 Yrotation Xrotation Zrotation
            JOINT leftEye
            {
              OFFSET 0.30408573140000006 0.5104519199999995 0.1276382305
              CHANNELS 3 Yrotation Xrotation Zrotation
              End Site
              {
                OFFSET 0.30408573140000006 0.5104519199999995 0.1276382305
              }
            }
            JOINT rightEye
            {
              OFFSET -0.30409491089999996 0.5104519199999995 0.1276379445
              CHANNELS 3 Yrotation Xrotation Zrotation
              End Site
              {
                OFFSET -0.30409491089999996 0.5104519199999995 0.1276379445
              }
            }
            JOINT jaw
            {
              OFFSET -3.155239131000001e-7 -0.11984121820000082 0.60178107
              CHANNELS 3 Yrotation Xrotation Zrotation
              End Site
              {
                OFFSET -3.155239131000001e-7 -0.11984121820000082 0.60178107
              }
            }
          }
        }
        JOINT rightShoulder
        {
          OFFSET -0.1807303465 1.5087829790000005 0
          CHANNELS 3 Yrotation Xrotation Zrotation
          JOINT rightUpperArm
          {
            OFFSET -0.5985063796536958 0 0
            CHANNELS 3 Yrotation Xrotation Zrotation
            JOINT rightLowerArm
            {
              OFFSET -2.2993322059002854 0 0
              CHANNELS 3 Yrotation Xrotation Zrotation
              JOINT rightHand
              {
                OFFSET -2.395045314457259 0 0
                CHANNELS 3 Yrotation Xrotation Zrotation
                JOINT rightIndexProximal
                {
                  OFFSET -0.5764487688300002 0.0441371204405987 0.17361932004999997
                  CHANNELS 3 Yrotation Xrotation Zrotation
                  JOINT rightIndexIntermediate
                  {
                    OFFSET -0.29573011380000047 -0.01934826376999843 -0.007698921482999974
                    CHANNELS 3 Yrotation Xrotation Zrotation
                    JOINT rightIndexDistal
                    {
                      OFFSET -0.19008373999999884 -0.012503266380000655 -0.0026365778999999897
                      CHANNELS 3 Yrotation Xrotation Zrotation
                      End Site
                      {
                        OFFSET -0.19008373999999884 -0.012503266380000655 -0.0026365778999999897
                      }
                    }
                  }
                }
                JOINT rightMiddleProximal
                {
                  OFFSET -0.5834852037300005 0.05211639405060153 0.02307162440000001
                  CHANNELS 3 Yrotation Xrotation Zrotation
                  JOINT rightMiddleIntermediate
                  {
                    OFFSET -0.33880114510000003 -0.019952774050000954 0.0002455003561999819
                    CHANNELS 3 Yrotation Xrotation Zrotation
                    JOINT rightMiddleDistal
                    {
                      OFFSET -0.20675694929999955 -0.012273788999999091 0.00030209124000002766
                      CHANNELS 3 Yrotation Xrotation Zrotation
                      End Site
                      {
                        OFFSET -0.20675694929999955 -0.012273788999999091 0.00030209124000002766
                      }
                    }
                  }
                }
                JOINT rightLittleProximal
                {
                  OFFSET -0.5346811737299992 -0.011214256288399227 -0.24363941305000003
                  CHANNELS 3 Yrotation Xrotation Zrotation
                  JOINT rightLittleIntermediate
                  {
                    OFFSET -0.21757715980000092 -0.011771559690000988 0.01201554387
                    CHANNELS 3 Yrotation Xrotation Zrotation
                    JOINT rightLittleDistal
                    {
                      OFFSET -0.1475201849000004 -0.00822055339600003 0.006082065407000015
                      CHANNELS 3 Yrotation Xrotation Zrotation
                      End Site
                      {
                        OFFSET -0.1475201849000004 -0.00822055339600003 0.006082065407000015
                      }
                    }
                  }
                }
                JOINT rightRingProximal
                {
                  OFFSET -0.5800810755299999 0.027657985680600072 -0.12066365025000003
                  CHANNELS 3 Yrotation Xrotation Zrotation
                  JOINT rightRingIntermediate
                  {
                    OFFSET -0.26166445029999974 -0.013623118409999302 0.011164098990000045
                    CHANNELS 3 Yrotation Xrotation Zrotation
                    JOINT rightRingDistal
                    {
                      OFFSET -0.17666387530000027 -0.009072900100000503 0.005668185599999959
                      CHANNELS 3 Yrotation Xrotation Zrotation
                      End Site
                      {
                        OFFSET -0.17666387530000027 -0.009072900100000503 0.005668185599999959
                      }
                    }
                  }
                }
                JOINT rightThumbProximal
                {
                  OFFSET -0.10997596379000074 -0.09577489355940072 0.16989765924999997
                  CHANNELS 3 Yrotation Xrotation Zrotation
                  JOINT rightThumbIntermediate
                  {
                    OFFSET -0.31036620999999986 -0.08229339117999834 0.15440884469999996
                    CHANNELS 3 Yrotation Xrotation Zrotation
                    JOINT rightThumbDistal
                    {
                      OFFSET -0.21631306399999906 -0.08825326400000111 0.018656797720000014
                      CHANNELS 3 Yrotation Xrotation Zrotation
                      End Site
                      {
                        OFFSET -0.21631306399999906 -0.08825326400000111 0.018656797720000014
                      }
                    }
                  }
                }
              }
            }
          }
        }
      }
    }
  }
}
MOTION
Frames: 5
Frame Time: 0.03333333333333333
0.1346301259557403 -6.6211581574008775 -0.12496102598966756 -180 -3.002917017631272 -3.6808836761901217e-16 -51.21855852954087 20.70171111036889 33.09907793991095 147.51918062896902 47.34824053583242 109.77688141990788 -73.00363180770275 38.507822323569336 -37.8436754600902 0 0 0 51.20512525365371 18.988446916736816 -31.820331384177486 -149.47828322359402 46.84484280453541 -112.29332975151578 70.00788800074248 37.28062195120934 36.28729363557557 0 0 0 -1.0763938636283743 -25.37432196978176 -1.1188875141493022 -0.6809903410329224 -16.01633445810987 -0.8828314439235164 0 0 0 24.60373271063351 4.008215675242599 5.115197903455242 86.2275126114522 -30.43074707971293 -61.71145124210731 39.625553693337956 73.55547719162526 -12.16490856518087 15.307162762061761 5.172590938666089 60.74020491301927 0 0 0 0 0 0 0 0 0 0 0 0 0 0 0 0 0 0 0 0 0 0 0 0 0 0 0 0 0 0 0 0 0 0 0 0 0 0 0 0 0 0 0 0 0 0.08907140272162639 -15.448772829699568 -10.140103654145667 0 8.787761851835567 0 0 0 0 0 0 0 0 0 0 -23.960530343473017 2.536504379110333 -7.166352252414609 -87.35000994079611 -28.491973406978317 61.31888409445325 -41.203318744024855 73.66917446414939 11.536393550071757 -16.659163705957994 6.88429293771423 -63.26331285288462 0 0 0 0 0 0 0 0 0 0 0 0 0 0 0 0 0 0 0 0 0 0 0 0 0 0 0 0 0 0 0 0 0 0 0 0 0 0 0 0 0 0 0 0 0
0.1346301259557403 -6.690650821071989 -0.08481303130180547 -180 -2.1029580406316386 -2.5765378273551163e-16 -51.22302037378733 20.35396240516245 34.34632556399932 148.51213930537182 47.18523258126534 111.12969870447584 -73.38060487349397 37.968930707587276 -37.70391085057421 0 0 0 51.219541029294305 18.636603645266575 -33.05841823233829 -150.4621656360286 46.64928301002123 -113.64191683264417 70.38287883155547 36.72412835224889 36.1408002668752 0 0 0 -1.0716725832651228 -24.874649354986374 -1.1294887983081576 -0.6788969776655962 -15.316596583912823 -0.891323547282982 0 0 0 24.305472960383568 2.9381835722373437 5.09138367428154 86.38015788462789 -30.16832160487955 -61.68071907242516 40.24976161328181 73.59483883122927 -12.051912702109332 14.665812187672676 5.648393438633545 60.475305688904825 0 0 0 0 0 0 0 0 0 0 0 0 0 0 0 0 0 0 0 0 0 0 0 0 0 0 0 0 0 0 0 0 0 0 0 0 0 0 0 0 0 0 0 0 0 0.08939419067942724 -15.455531423565391 -10.106457184582126 0 8.751772893087066 0 0 0 0 0 0 0 0 0 0 -23.690301726977637 1.573978241419746 -6.979603759819961 -87.34695175868536 -28.49711627913782 61.31973738349651 -41.74591394423544 73.70354483611295 11.487175323317171 -15.93211505260764 7.2424095577765435 -62.83173505395684 0 0 0 0 0 0 0 0 0 0 0 0 0 0 0 0 0 0 0 0 0 0 0 0 0 0 0 0 0 0 0 0 0 0 0 0 0 0 0 0 0 0 0 0 0
0.1346301259557403 -6.7253972871036805 -0.06473889976173877 -180 -1.6530554877981285 -2.0249708837114663e-16 -51.22827542787519 20.17996190695379 34.96955025966574 149.00550741383984 47.09775026693148 111.80325120367975 -73.56872274856799 37.69967955142921 -37.63269220694636 0 0 0 51.22975041961645 18.460629971013645 -33.67716511480497 -150.95042032136823 46.54553598374243 -114.31281805229013 70.57008789001486 36.44608390409977 36.06623221566325 0 0 0 -1.069356477668866 -24.624774170113003 -1.1347571420879068 -0.6778927821483884 -14.966628539207816 -0.8955502538088999 0 0 0 24.156499928265244 2.402721188265037 5.081568234373624 86.4564069350024 -30.037118390435765 -61.665080799444 40.56257012346004 73.61437859573375 -11.994723425820911 14.343975984066685 5.885275820479162 60.34070898436408 0 0 0 0 0 0 0 0 0 0 0 0 0 0 0 0 0 0 0 0 0 0 0 0 0 0 0 0 0 0 0 0 0 0 0 0 0 0 0 0 0 0 0 0 0 0.08955407490054362 -15.458911688975476 -10.089632627026962 0 8.733776264397104 0 0 0 0 0 0 0 0 0 0 -23.55632070859604 1.092085947624269 -6.887904332241684 -87.34542201198204 -28.49969460969918 61.32016568366772 -42.01770281935352 73.72068948931077 11.462092261023344 -15.56718938419846 7.419501530765399 -62.614010516019796 0 0 0 0 0 0 0 0 0 0 0 0 0 0 0 0 0 0 0 0 0 0 0 0 0 0 0 0 0 0 0 0 0 0 0 0 0 0 0 0 0 0 0 0 0
0.1346301259557403 -6.760143753135373 -0.04466476822167207 -180 -1.2031530324309763 -1.473654126227884e-16 -51.23554062417147 20.006026382094063 35.5920963590544 149.4965073157888 47.0063297098289 112.47454507538096 -73.75658533309479 37.43061577188484 -37.56061598475285 0 0 0 51.24195432411505 18.28477359693609 -34.29531360030072 -151.43593450874587 46.43787852147526 -114.98110974744827 70.7570758194477 36.168237066853706 35.990804406160656 0 0 0 -1.0670707251189104 -24.37489883009064 -1.1400048379841536 -0.6769168608353883 -14.616657501750296 -0.8997637999655387 0 0 0 24.007669396911016 1.8672350749898878 5.0731494552263445 86.53259663365911 -29.905935021219303 -61.64926435983004 40.875813078689674 73.63383196912169 -11.937090199394111 14.021439658264107 6.121401816558882 60.20471974415274 0 0 0 0 0 0 0 0 0 0 0 0 0 0 0 0 0 0 0 0 0 0 0 0 0 0 0 0 0 0 0 0 0 0 0 0 0 0 0 0 0 0 0 0 0 0.08971294562340479 -15.462293781208793 -10.07280876178847 0 8.715779640320012 0 0 0 0 0 0 0 0 0 0 -23.423129207802656 0.6099811395347601 -6.797343354426004 -87.343892433163 -28.50227106020989 61.3205923000861 -42.28979730757647 73.73780294669794 11.43669536697655 -15.201436905164591 7.59521260659102 -62.395064833910965 0 0 0 0 0 0 0 0 0 0 0 0 0 0 0 0 0 0 0 0 0 0 0 0 0 0 0 0 0 0 0 0 0 0 0 0 0 0 0 0 0 0 0 0 0
0.1346301259557403 -6.829636148414214 -0.004516505141538659 -180 -0.3030180059758761 -3.710934908518007e-17 -51.256086495241846 19.65816167365273 36.83618319444425 150.47144883960513 46.81169451113834 113.8105761596627 -74.13170844895564 36.89292056071308 -37.41392021393475 0 0 0 51.27231123340181 17.93321447040904 -35.53082789993706 -152.39879783404166 46.210810429205026 -116.31010142300447 71.13053531635158 35.61299272902227 35.837347974905335 0 0 0 -1.0625862471211391 -23.875087680321496 -1.1504366927937009 -0.6750487018622083 -13.916554186363468 -0.9081547433730975 0 0 0 23.710168472366956 0.7956013061205868 5.0604855857688475 86.68478206274729 -29.643620833671037 -61.61708291976677 41.50363663370767 73.67247835156549 -11.82051135770464 13.374037319863088 6.591489948535781 59.928476135324644 0 0 0 0 0 0 0 0 0 0 0 0 0 0 0 0 0 0 0 0 0 0 0 0 0 0 0 0 0 0 0 0 0 0 0 0 0 0 0 0 0 0 0 0 0 0.09002868867358821 -15.469054587906104 -10.039158370812592 0 8.679789853560578 0 0 0 0 0 0 0 0 0 0 -23.158913650405164 -0.355306236596663 -6.619503453480611 -87.34082498217512 -28.507424149978657 61.3214473001664 -42.83498642931794 73.77191145571757 11.38492009895699 -14.467201198242432 7.942572947807113 -61.95335894547262 0 0 0 0 0 0 0 0 0 0 0 0 0 0 0 0 0 0 0 0 0 0 0 0 0 0 0 0 0 0 0 0 0 0 0 0 0 0 0 0 0 0 0 0 0
